:version 1.10
:name ASF
:units
  mass 1
  length 1
  angle deg
:documentation
  ASF file generated by Kaydara
:root
  axis xyz
  order  tx ty tz rx ry rz
  position 0 0 0
  orientation 0 0 0
:bonedata
  begin
    id 1
    name RightUpLegDummy
    direction -0.718183 -0.695806 0.00816078
    length 4.904
    axis 0 0 0 xyz
  end
  begin
    id 2
    name RightUpLeg
    direction -0.0736652 -0.994202 0.0783343
    length 17.4976
    axis -2.72909 -3.00389 -4.00133 xyz
    dof rx ry rz
  end
  begin
    id 3
    name RightLeg
    direction -0.0389037 -0.994596 -0.0962598
    length 16.5821
    axis 3.95836 -18.5909 -4.46993 xyz
    dof rx ry rz
  end
  begin
    id 4
    name RightFoot
    direction -0.311643 -0.412678 0.855906
    length 3.77069
    axis -1.99483 -18.8351 -3.27644 xyz
    dof rx ry rz
  end
  begin
    id 5
    name RightToes
    direction -0.317852 0.0389852 0.947339
    length 3.85082
    axis -2.00228 -18.1713 -3.25211 xyz
    dof rx ry rz
  end
  begin
    id 6
    name SpineDummy
    direction 8.3039e-015 1 4.44677e-016
    length 4.6813
    axis 0 0 0 xyz
  end
  begin
    id 7
    name Spine
    direction -0.000262373 0.999988 0.00493267
    length 10.1015
    axis -0.00246081 0.00062579 0.0150362 xyz
    dof rx ry rz
  end
  begin
    id 8
    name Spine1
    direction 0 0 0
    length 0
    axis -0.00349562 0.000650293 0.0196666 xyz
    dof rx ry rz
  end
  begin
    id 9
    name HEadDummy
    direction -0.000343232 0.999999 0.00123745
    length 3.43865
    axis -0.00349562 0.000650293 0.0196666 xyz
  end
  begin
    id 10
    name HEad
    direction -0.0461221 0.980933 0.188796
    length 5.12695
    axis -0.00351404 -7.04812 0.0199272 xyz
    dof rx ry rz
  end
  begin
    id 11
    name LeftShoulder1Dummy
    direction 0.998904 -0.0399089 -0.0244534
    length 3.5433
    axis -0.00349562 0.000650293 0.0196666 xyz
  end
  begin
    id 12
    name LeftShoulder1
    direction 0.99951 1.64443e-005 0.0312999
    length 4.05031
    axis -0.00349562 0.000650293 0.0196666 xyz
    dof rx ry rz
  end
  begin
    id 13
    name LeftArm
    direction 0.984791 0.0515299 0.165927
    length 12.9126
    axis -64.823 -10.7743 5.20463 xyz
    dof rx ry rz
  end
  begin
    id 14
    name LeftForeArm
    direction 0.984968 0.0534808 0.16425
    length 10.8596
    axis -30.0462 -7.70601 1.87451 xyz
    dof rx ry rz
  end
  begin
    id 15
    name LeftHand
    direction 0.975871 0.0289682 0.216418
    length 6.62295
    axis -20.1348 -6.98077 1.86072 xyz
    dof rx ry rz
  end
  begin
    id 16
    name RightShoulderDummy
    direction -0.998877 -0.0405946 -0.0244307
    length 3.5433
    axis -0.00349562 0.000650293 0.0196666 xyz
  end
  begin
    id 17
    name RightShoulder
    direction -0.998933 -0.0249743 -0.0388558
    length 4.05031
    axis -0.0205316 -4.02113 1.41395 xyz
    dof rx ry rz
  end
  begin
    id 18
    name RightArm
    direction -0.997559 0.068664 0.0127103
    length 12.9638
    axis -67.3882 1.84188 -6.15987 xyz
    dof rx ry rz
  end
  begin
    id 19
    name RightForeArm
    direction -0.991508 0.0912848 0.0926241
    length 10.8312
    axis -22.1975 3.41087 -4.28711 xyz
    dof rx ry rz
  end
  begin
    id 20
    name RightHand
    direction -0.989262 0.0600788 0.133232
    length 6.57864
    axis -12.2911 2.17515 -4.39675 xyz
    dof rx ry rz
  end
  begin
    id 21
    name LeftUpLegDummy
    direction 0.718183 -0.695806 0.00816078
    length 4.904
    axis 0 0 0 xyz
  end
  begin
    id 22
    name LeftUpLeg
    direction 0.0831398 -0.99469 0.0606531
    length 17.4976
    axis -1.71016 2.29552 4.63832 xyz
    dof rx ry rz
  end
  begin
    id 23
    name LeftLeg
    direction 0.0498442 -0.991778 -0.117862
    length 16.5821
    axis 5.13757 15.5727 5.13348 xyz
    dof rx ry rz
  end
  begin
    id 24
    name LeftFoot
    direction 0.269026 -0.433896 0.85986
    length 3.77069
    axis -0.576502 15.6961 4.10267 xyz
    dof rx ry rz
  end
  begin
    id 25
    name LeftToes
    direction 0.277311 0.0251143 0.960452
    length 3.85048
    axis -0.576502 15.6961 4.10267 xyz
    dof rx ry rz
  end
:hierarchy
  begin
    root RightUpLegDummy SpineDummy LeftUpLegDummy
    RightUpLegDummy RightUpLeg
    RightUpLeg RightLeg
    RightLeg RightFoot
    RightFoot RightToes
    SpineDummy Spine
    Spine Spine1
    Spine1 HEadDummy LeftShoulder1Dummy RightShoulderDummy
    HEadDummy HEad
    LeftShoulder1Dummy LeftShoulder1
    LeftShoulder1 LeftArm
    LeftArm LeftForeArm
    LeftForeArm LeftHand
    RightShoulderDummy RightShoulder
    RightShoulder RightArm
    RightArm RightForeArm
    RightForeArm RightHand
    LeftUpLegDummy LeftUpLeg
    LeftUpLeg LeftLeg
    LeftLeg LeftFoot
    LeftFoot LeftToes
  end

:SAMPLES-PER-SECOND 30
:FULLY-SPECIFIED
:DEGREES
112
root  -4.85061 39.307 -4.82077 -2.11479 -5.07186 -3.53807
RightUpLeg  -7.22602 -0.347634 4.58656
RightLeg  12.9887 -5.65616 -2.68309
RightFoot  -3.84441 -0.030349 0.437168
RightToes  1.74624e-010 -3.18055e-015 -2.98177e-016
Spine  5.87688 -3.39465 -3.85763
Spine1  6.49081 -8.44501 22.3729
HEad  -11.7647 12.4828 -5.22385
LeftShoulder1  -3.88251e-019 9.70628e-020 -3.87848e-018
LeftArm  -36.2705 54.9306 -84.8239
LeftForeArm  -4.28639 -18.9184 -0.490836
LeftHand  -0.760923 -4.29124 9.73247
RightShoulder  7.45548 10.3421 35.5844
RightArm  17.8898 -41.1289 8.85818
RightForeArm  0.381578 20.3962 -10.282
RightHand  -0.990892 2.45951 -14.4555
LeftUpLeg  -5.97815 -1.19977 3.32022
LeftLeg  21.0602 8.46263 10.2726
LeftFoot  -11.1584 0.0594025 -5.29123
LeftToes  7.37594e-011 2.64622e-011 -6.25182e-011
113
root  -4.4895 39.3505 -4.94596 -2.61506 -4.51396 -2.44258
RightUpLeg  -7.55062 -1.42067 2.78941
RightLeg  13.8554 -4.89631 -3.00404
RightFoot  -3.64532 -0.084618 1.06688
RightToes  1.74624e-010 -3.18055e-015 -2.98177e-016
Spine  6.26998 -3.35672 -4.8529
Spine1  6.46933 -8.02862 20.4427
HEad  -13.2557 11.3818 -4.55164
LeftShoulder1  -3.88251e-019 9.70628e-020 -3.87848e-018
LeftArm  -36.4684 54.831 -83.1736
LeftForeArm  -2.87269 -16.8593 -0.957727
LeftHand  -0.742351 -4.05939 9.73262
RightShoulder  7.42189 10.3364 35.4258
RightArm  18.514 -42.7897 10.0014
RightForeArm  -2.36108 22.3238 -11.9078
RightHand  -0.995591 2.2281 -14.9431
LeftUpLeg  -5.38932 0.805319 1.83934
LeftLeg  20.032 6.68885 9.1402
LeftFoot  -10.9429 0.0474422 -4.11268
LeftToes  7.37594e-011 2.64622e-011 -6.25182e-011
114
root  -4.0819 39.3842 -5.08527 -3.04368 -4.19779 -1.1934
RightUpLeg  -8.05402 -3.67047 0.845842
RightLeg  14.7402 -2.76728 -3.17971
RightFoot  -3.58425 -0.127984 1.57204
RightToes  1.74624e-010 -3.18055e-015 -2.98177e-016
Spine  6.82839 -3.13862 -5.11284
Spine1  5.99947 -7.08507 17.1863
HEad  -14.3338 10.0319 -4.14592
LeftShoulder1  -3.88251e-019 9.70628e-020 -3.87848e-018
LeftArm  -35.3554 54.8386 -81.3077
LeftForeArm  -2.28415 -15.3395 -1.29607
LeftHand  -0.703492 -3.76967 9.53023
RightShoulder  7.36347 10.3181 35.168
RightArm  18.1953 -44.7444 10.8687
RightForeArm  -3.42697 24.3973 -12.9944
RightHand  -1.02319 2.57752 -14.7097
LeftUpLeg  -4.70412 2.54078 0.010659
LeftLeg  18.7859 5.23523 8.10256
LeftFoot  -10.5835 0.0333459 -2.82832
LeftToes  7.37594e-011 2.64622e-011 -6.25182e-011
115
root  -3.61987 39.3591 -5.23272 -3.44311 -4.18896 0.125067
RightUpLeg  -9.07692 -8.01724 -0.875771
RightLeg  16.2063 1.82789 -3.54795
RightFoot  -3.80742 -0.147278 1.85324
RightToes  1.74624e-010 -3.18055e-015 -2.98177e-016
Spine  7.34471 -2.7905 -4.94248
Spine1  5.64129 -5.91403 13.2753
HEad  -15.2852 8.68339 -3.99504
LeftShoulder1  -3.88251e-019 9.70628e-020 -3.87848e-018
LeftArm  -33.8177 54.8589 -79.5139
LeftForeArm  -1.96417 -14.6803 -1.59507
LeftHand  -0.702834 -3.57953 9.72283
RightShoulder  7.35371 10.3261 35.1002
RightArm  18.7679 -45.8921 11.4862
RightForeArm  -4.06464 26.0886 -13.8299
RightHand  -1.08191 3.27432 -14.3281
LeftUpLeg  -4.36577 2.76452 -2.18595
LeftLeg  18.3387 5.31831 7.97244
LeftFoot  -10.3899 0.0171414 -1.90413
LeftToes  7.37594e-011 2.64622e-011 -6.25182e-011
116
root  -3.13109 39.2322 -5.38546 -3.88785 -4.62642 1.63081
RightUpLeg  -11.051 -12.1392 -2.55318
RightLeg  19.053 6.82649 -4.2612
RightFoot  -4.07953 -0.185191 2.3925
RightToes  1.74624e-010 -3.18055e-015 -2.98177e-016
Spine  7.56555 -2.27017 -4.87431
Spine1  5.98236 -4.62895 9.31569
HEad  -16.5584 7.60784 -3.72483
LeftShoulder1  -3.88251e-019 9.70628e-020 -3.87848e-018
LeftArm  -32.755 54.8145 -78.039
LeftForeArm  -2.07524 -14.9384 -1.66882
LeftHand  -0.754221 -3.53568 10.4653
RightShoulder  7.37416 10.3512 35.1488
RightArm  19.8319 -45.9038 12.359
RightForeArm  -3.62826 27.0677 -14.3709
RightHand  -1.14999 3.77678 -14.4115
LeftUpLeg  -4.48831 1.90205 -4.801
LeftLeg  19.0099 6.85643 8.79602
LeftFoot  -10.6766 -0.00128544 -1.30151
LeftToes  7.37594e-011 2.64622e-011 -6.25182e-011
117
root  -2.67346 39.0228 -5.54005 -4.65574 -5.59772 3.44709
RightUpLeg  -13.5332 -12.1033 -5.06768
RightLeg  23.3809 8.14265 -4.6852
RightFoot  -4.18877 -0.271488 3.51802
RightToes  1.74624e-010 -3.18055e-015 -2.98177e-016
Spine  7.83304 -1.43628 -5.40221
Spine1  6.81494 -3.10899 5.62478
HEad  -18.248 6.82764 -3.21094
LeftShoulder1  -3.88251e-019 9.70628e-020 -3.87848e-018
LeftArm  -32.1529 54.8878 -76.9731
LeftForeArm  -3.83687 -16.0394 -1.45836
LeftHand  -0.834382 -3.58594 11.4847
RightShoulder  7.38195 10.368 35.1511
RightArm  20.3738 -45.2366 13.6715
RightForeArm  -0.909266 27.3402 -14.6398
RightHand  -1.22713 4.29307 -14.5767
LeftUpLeg  -4.52244 1.49213 -7.65546
LeftLeg  20.1439 8.46914 9.88011
LeftFoot  -11.2001 -0.0171859 -0.787707
LeftToes  7.37594e-011 2.64622e-011 -6.25182e-011
118
root  -2.27634 38.799 -5.68166 -5.92814 -6.81341 5.25538
RightUpLeg  -15.7656 -11.5991 -7.54971
RightLeg  27.9317 8.42021 -5.28968
RightFoot  -4.59827 -0.349974 4.75269
RightToes  1.74624e-010 -3.18055e-015 -2.98177e-016
Spine  8.46245 -0.405919 -6.25641
Spine1  7.79658 -1.47803 2.4312
HEad  -20.2065 6.11493 -2.72771
LeftShoulder1  -3.88251e-019 9.70628e-020 -3.87848e-018
LeftArm  -31.3173 55.1636 -76.1093
LeftForeArm  -7.30165 -17.5532 -1.14279
LeftHand  -0.914875 -3.73237 12.3635
RightShoulder  7.40674 10.3877 35.2337
RightArm  19.9832 -44.2632 15.0868
RightForeArm  3.75738 27.1112 -14.7203
RightHand  -1.35558 5.41532 -14.463
LeftUpLeg  -4.04423 2.36392 -10.1507
LeftLeg  21.1756 9.1075 10.5993
LeftFoot  -11.7566 -0.0286422 -0.26111
LeftToes  7.37594e-011 2.64622e-011 -6.25182e-011
119
root  -1.91785 38.6796 -5.78824 -7.22576 -7.64584 6.27678
RightUpLeg  -17.0864 -11.8326 -8.91751
RightLeg  31.3551 7.23188 -6.73432
RightFoot  -5.95866 -0.320177 5.2319
RightToes  1.74624e-010 -3.18055e-015 -2.98177e-016
Spine  9.01946 0.335724 -6.23854
Spine1  8.98386 -0.143483 -0.204202
HEad  -22.2034 5.33003 -2.45352
LeftShoulder1  -3.88251e-019 9.70628e-020 -3.87848e-018
LeftArm  -30.1524 55.4399 -75.1141
LeftForeArm  -10.3134 -18.6393 -0.935827
LeftHand  -0.968216 -3.88467 12.8502
RightShoulder  7.48765 10.4331 35.5441
RightArm  18.9363 -43.1993 16.3208
RightForeArm  7.84606 26.5522 -14.5917
RightHand  -1.52056 6.6812 -14.5399
LeftUpLeg  -3.18309 3.86829 -11.5374
LeftLeg  21.5534 8.88402 10.6888
LeftFoot  -12.1349 -0.0361466 0.405549
LeftToes  7.37594e-011 2.64622e-011 -6.25182e-011
120
root  -1.59062 38.7041 -5.85007 -7.78692 -7.65585 6.07018
RightUpLeg  -17.69 -13.1797 -8.62231
RightLeg  33.4958 4.4704 -9.24642
RightFoot  -8.53751 -0.169869 4.63598
RightToes  1.74624e-010 -3.18055e-015 -2.98177e-016
Spine  8.86983 0.453899 -4.72876
Spine1  10.2268 0.670535 -2.42936
HEad  -23.8452 4.59354 -2.294
LeftShoulder1  -3.88251e-019 9.70628e-020 -3.87848e-018
LeftArm  -29.4144 55.6258 -73.9888
LeftForeArm  -11.0601 -18.6679 -0.974711
LeftHand  -0.979023 -3.80452 13.1045
RightShoulder  7.57021 10.4826 35.8516
RightArm  17.7674 -42.5106 17.3558
RightForeArm  9.00711 25.7417 -14.2072
RightHand  -1.59481 6.91944 -14.9594
LeftUpLeg  -2.60494 4.56229 -11.6923
LeftLeg  21.2998 8.57978 10.4496
LeftFoot  -12.1892 -0.0421408 1.14812
LeftToes  7.37594e-011 2.64622e-011 -6.25182e-011
121
root  -1.31871 38.8399 -5.87775 -7.52356 -7.09275 4.8857
RightUpLeg  -17.9168 -14.9815 -6.93703
RightLeg  34.7484 1.74707 -11.7056
RightFoot  -11.1732 -0.0307345 3.52444
RightToes  1.74624e-010 -3.18055e-015 -2.98177e-016
Spine  8.13394 0.257387 -2.38047
Spine1  10.978 1.12249 -4.07638
HEad  -24.6355 4.01732 -2.18525
LeftShoulder1  -3.88251e-019 9.70628e-020 -3.87848e-018
LeftArm  -29.5622 55.9929 -73.1875
LeftForeArm  -10.3188 -17.7279 -1.18713
LeftHand  -0.952925 -3.37304 13.4005
RightShoulder  7.57444 10.4968 35.8409
RightArm  17.0313 -42.5269 18.0459
RightForeArm  7.74109 24.77 -13.6475
RightHand  -1.53235 6.27662 -15.1418
LeftUpLeg  -2.50983 3.78801 -11.0282
LeftLeg  20.6083 8.86559 10.2335
LeftFoot  -11.8055 -0.051317 1.72502
LeftToes  7.37594e-011 2.64622e-011 -6.25182e-011
122
root  -1.13408 39.0134 -5.87482 -6.96272 -6.59255 3.51229
RightUpLeg  -17.8409 -15.968 -4.7573
RightLeg  35.4647 1.21125 -12.4097
RightFoot  -11.9184 0.00581622 2.66828
RightToes  1.74624e-010 -3.18055e-015 -2.98177e-016
Spine  7.3706 0.301023 -0.722107
Spine1  10.9143 1.45094 -4.75235
HEad  -24.2932 3.52624 -2.11809
LeftShoulder1  -3.88251e-019 9.70628e-020 -3.87848e-018
LeftArm  -30.3174 56.8566 -73.0566
LeftForeArm  -9.73068 -16.3396 -1.39406
LeftHand  -0.904098 -2.80628 13.6196
RightShoulder  7.52219 10.4854 35.6025
RightArm  17.1619 -42.9064 18.089
RightForeArm  6.60149 23.685 -13.0509
RightHand  -1.43843 5.97293 -14.6024
LeftUpLeg  -2.52474 2.2393 -10.1137
LeftLeg  19.6945 9.80018 10.0633
LeftFoot  -11.1723 -0.0634858 1.99598
LeftToes  7.37594e-011 2.64622e-011 -6.25182e-011
123
root  -1.03839 39.1521 -5.82783 -6.37053 -6.36381 2.55769
RightUpLeg  -17.3376 -15.7462 -2.81514
RightLeg  35.3541 2.88172 -11.0892
RightFoot  -9.97731 -0.0408306 2.39313
RightToes  1.74624e-010 -3.18055e-015 -2.98177e-016
Spine  6.64624 0.633146 -0.631179
Spine1  10.2884 1.64298 -4.39215
HEad  -22.9536 3.12331 -1.92243
LeftShoulder1  -3.88251e-019 9.70628e-020 -3.87848e-018
LeftArm  -31.1658 58.2945 -73.3255
LeftForeArm  -9.55028 -14.9924 -1.51877
LeftHand  -0.856144 -2.47627 13.4653
RightShoulder  7.48857 10.4822 35.4394
RightArm  17.7684 -43.1486 17.5919
RightForeArm  7.47165 22.471 -12.4191
RightHand  -1.37559 6.37222 -13.5203
LeftUpLeg  -2.53998 0.755576 -9.3934
LeftLeg  18.8677 10.9726 9.83293
LeftFoot  -10.6958 -0.0714684 2.03888
LeftToes  7.37594e-011 2.64622e-011 -6.25182e-011
124
root  -1.00197 39.2487 -5.73655 -5.6273 -5.9079 2.1018
RightUpLeg  -16.1171 -15.2976 -1.37594
RightLeg  33.4077 4.35618 -9.30251
RightFoot  -6.83472 -0.132976 2.65673
RightToes  1.74624e-010 -3.18055e-015 -2.98177e-016
Spine  5.56521 0.815672 -1.80488
Spine1  9.60882 1.45469 -3.25475
HEad  -21.0929 3.03899 -1.45795
LeftShoulder1  -3.88251e-019 9.70628e-020 -3.87848e-018
LeftArm  -31.5885 60.2122 -73.2912
LeftForeArm  -9.42683 -14.0776 -1.59209
LeftHand  -0.820751 -2.41613 13.0222
RightShoulder  7.48711 10.4856 35.4245
RightArm  17.3586 -43.3225 17.1322
RightForeArm  10.468 21.3087 -11.6309
RightHand  -1.31183 6.78647 -12.4766
LeftUpLeg  -2.706 -0.379685 -9.04568
LeftLeg  18.0366 11.6706 9.41294
LeftFoot  -10.4017 -0.0774101 2.09986
LeftToes  7.37594e-011 2.64622e-011 -6.25182e-011
125
root  -0.99016 39.3486 -5.6299 -4.83513 -4.74122 1.95199
RightUpLeg  -13.8586 -15.7414 -0.548144
RightLeg  29.0804 3.78579 -8.33918
RightFoot  -4.96518 -0.214118 3.10596
RightToes  1.74624e-010 -3.18055e-015 -2.98177e-016
Spine  4.12897 0.52111 -3.51783
Spine1  9.3708 0.759135 -1.61179
HEad  -19.4175 3.37599 -0.938145
LeftShoulder1  -3.88251e-019 9.70628e-020 -3.87848e-018
LeftArm  -31.0701 62.2374 -72.3581
LeftForeArm  -9.34507 -13.7477 -1.70387
LeftHand  -0.787396 -2.3596 12.5958
RightShoulder  7.50779 10.4832 35.5345
RightArm  15.6049 -43.7103 17.0501
RightForeArm  13.4521 20.5415 -11.0275
RightHand  -1.22532 6.69533 -11.7542
LeftUpLeg  -2.81086 -1.35576 -9.01539
LeftLeg  16.8136 11.5747 8.72211
LeftFoot  -9.9368 -0.0926903 2.38532
LeftToes  7.37594e-011 2.64622e-011 -6.25182e-011
126
root  -0.970294 39.4474 -5.54203 -4.4164 -3.21787 1.94217
RightUpLeg  -11.0471 -17.0584 -0.456966
RightLeg  24.0952 2.23551 -7.73047
RightFoot  -5.14229 -0.219482 3.24779
RightToes  1.74624e-010 -3.18055e-015 -2.98177e-016
Spine  2.86082 -0.041875 -4.93016
Spine1  9.92942 -0.0454758 -0.278889
HEad  -18.6827 3.7755 -0.652052
LeftShoulder1  -3.88251e-019 9.70628e-020 -3.87848e-018
LeftArm  -29.4766 63.4985 -70.3688
LeftForeArm  -8.52481 -13.5095 -1.89292
LeftHand  -0.76259 -2.33228 12.2523
RightShoulder  7.59118 10.5004 35.9171
RightArm  13.9655 -44.2147 17.0945
RightForeArm  13.6691 20.4984 -11.0747
RightHand  -1.15046 6.16466 -11.5411
LeftUpLeg  -2.5413 -2.26364 -9.1797
LeftLeg  15.4841 11.0993 8.03865
LeftFoot  -9.32114 -0.118113 2.82234
LeftToes  7.37594e-011 2.64622e-011 -6.25182e-011
